<svg width="512" height="512" viewBox="0 0 512 512" fill="none" xmlns="http://www.w3.org/2000/svg">
<path d="M375.787 503.382H408.321H489.345C496.79 503.382 502.825 497.347 502.825 489.902V486.589C502.825 479.144 496.79 473.109 489.345 473.109H408.32H102.571H21.547C14.102 473.109 8.06702 479.144 8.06702 486.589V489.902C8.06702 497.347 14.102 503.382 21.547 503.382H102.571H345.671" fill="#CCC3A8"/>
<path d="M38.3499 489.9V486.587C38.3499 479.142 44.3849 473.107 51.8299 473.107H29.2429C21.7979 473.107 15.7629 479.142 15.7629 486.587V489.9C15.7629 497.345 21.7979 503.38 29.2429 503.38H51.8299C44.3859 503.382 38.3499 497.345 38.3499 489.9Z" fill="#C9B585"/>
<path d="M389.353 442.835H329.505H327.951H306.629H305.075H265.663H245.228H205.816H204.262H182.94H181.386H121.538L104.329 473.108H181.386H182.94H204.262H205.816H228.019H282.872H305.075H306.629H327.951H329.505H406.562L389.353 442.835Z" fill="#FFB92E"/>
<path d="M137.544 478.751C136.357 476.905 136.189 474.582 137.098 472.585L149.41 445.539C150.459 443.237 152.754 441.759 155.284 441.759H132.697C130.167 441.759 127.872 443.237 126.823 445.539L114.511 472.585C113.602 474.582 113.771 476.907 114.957 478.751C116.144 480.597 118.19 481.712 120.384 481.712H142.971C140.777 481.712 138.731 480.597 137.544 478.751Z" fill="#EF9A1D"/>
<path d="M149.221 442.835H361.67C352.025 392.96 308.137 355.292 255.446 355.292C202.754 355.292 158.866 392.96 149.221 442.835Z" fill="#7C7A75"/>
<path d="M274.436 355.899C270.722 355.514 266.96 355.292 263.143 355.292C210.451 355.292 166.563 392.96 156.919 442.835H179.506C188.452 396.572 226.868 360.834 274.436 355.899Z" fill="#6D6C69"/>
<g opacity="0.15">
<path opacity="0.15" d="M475.649 114.368C488.675 114.368 500.408 108.862 508.674 100.06C508.901 99.2922 509.128 98.5252 509.329 97.7482C509.419 97.4012 509.497 97.0482 509.583 96.6982C509.759 95.9772 509.929 95.2552 510.085 94.5252C510.171 94.1112 510.248 93.6962 510.329 93.2802C510.461 92.6002 510.584 91.9172 510.696 91.2312C510.766 90.7992 510.832 90.3642 510.895 89.9302C510.994 89.2372 511.081 88.5432 511.16 87.8442C511.208 87.4182 511.259 86.9942 511.299 86.5662C511.371 85.8082 511.425 85.0442 511.473 84.2782C511.496 83.9102 511.528 83.5462 511.544 83.1782C511.599 82.0432 511.63 80.9042 511.63 79.7562C511.63 57.6872 501.578 37.9652 485.804 24.9172C482.538 24.1692 479.143 23.7612 475.65 23.7612C450.628 23.7612 430.346 44.0442 430.346 69.0642C430.346 94.0852 450.629 114.368 475.649 114.368Z" fill="#F5F5F5"/>
</g>
<path d="M255.446 363.359C255.487 363.359 255.527 363.361 255.566 363.361C255.575 363.361 255.583 363.363 255.591 363.363C256.386 363.364 257.177 363.391 257.97 363.411C258.446 363.423 258.925 363.422 259.399 363.44C260.054 363.466 260.707 363.515 261.361 363.553C262.036 363.593 262.714 363.625 263.387 363.679C263.979 363.725 264.567 363.791 265.156 363.848C265.897 363.92 266.639 363.989 267.376 364.077C267.902 364.139 268.426 364.217 268.95 364.287C269.758 364.397 270.565 364.509 271.367 364.638C271.82 364.711 272.272 364.793 272.723 364.871C273.605 365.026 274.485 365.186 275.359 365.364C275.732 365.439 276.103 365.52 276.475 365.6C277.438 365.808 278.397 366.025 279.351 366.259C279.635 366.329 279.918 366.401 280.201 366.473C281.254 366.742 282.302 367.026 283.341 367.328C283.527 367.382 283.714 367.436 283.9 367.492C315.883 376.991 341.651 402.106 351.395 434.767H159.494C171.998 392.853 210.889 363.359 255.446 363.359ZM118.194 465.041L126.232 450.902H149.222H361.67H384.66L392.698 465.041H118.194Z" fill="#231F20"/>
</svg>
